# xmcd
#
# Track frame offsets: 
#        150
#        9736
#        30700
#        41429
#        50357
#        62448
#        74129
#        83683
#        96095
#        105642
#        115606
#        126705
#        138968
#        151408
#        159705
#        173046
#        183987
#        194732
#        205505
#        218665
#        229312
#        239116
#        251535
#        261875
#        270974
#        281888
#        291850
#        303601
#        317651
#        328624
#        338399
#        349678
#        359748
#        368783
#        377549
#        388144
#
# Disc length: 5324 seconds
#
# Revision: 1
# Processed by: cddbd v1.5.2PL0 Copyright (c) Steve Scherf et al.
# Submitted via: ExactAudioCopyFreeDBPlugin 1.0
#
DISCID=2914ca24
DTITLE=Various Artist - The Sun Country Box:  Country Music Recorded 
DTITLE=by Sam Phillips, 1950-1959 [Bear Family]
DYEAR=2013
DGENRE=Country
TTITLE0=Warren Smith - Uranium Rock
TTITLE1=Warren Smith - Goodbye Mr. Love (1)
TTITLE2=Warren Smith - Sweet Sweet Girl
TTITLE3=Warren Smith - Dear John
TTITLE4=Warren Smith - Goodbye Mr. Love (2)
TTITLE5=Ernie Chaffin - Feelin' Low
TTITLE6=Ernie Chaffin - Lonesome for My Baby
TTITLE7=Ernie Chaffin - I'm Lonesome
TTITLE8=Ernie Chaffin - Laughin' and Jokin'
TTITLE9=Ernie Chaffin - Linda
TTITLE10=Ernie Chaffin - Heart of Me
TTITLE11=Ernie Chaffin - I'll Walk Alone
TTITLE12=Ernie Chaffin - Be Faithful to Me
TTITLE13=Ernie Chaffin - Got You on My Mind
TTITLE14=Ernie Chaffin - Born to Lose
TTITLE15=Ernie Chaffin - (Nothing Can Change) My Love for You
TTITLE16=Ernie Chaffin - Miracle of You
TTITLE17=Ernie Chaffin - Please Don't Ever Leave Me
TTITLE18=Mack Self - Easy to Love (1)
TTITLE19=Mack Self - Goin' Crazy
TTITLE20=Mack Self - Everyday
TTITLE21=Mack Self - Easy to Love (2)
TTITLE22=Mack Self - Mad at You
TTITLE23=Mack Self - Vibrate
TTITLE24=Mack Self - Little One
TTITLE25=Mack Self - Lovin' Memories
TTITLE26=Mack Self - Willie Brown
TTITLE27=Jerry Lee Lewis - I'm Feelin' Sorry (1)
TTITLE28=Jerry Lee Lewis - I'm Feelin' Sorry (2)
TTITLE29=Jerry Lee Lewis - I'm the Guilty One
TTITLE30=Onie Wheeler - Jump Right Out of This Jukebox (1)
TTITLE31=Onie Wheeler - Walkin' Shoes
TTITLE32=Onie Wheeler - That's All
TTITLE33=Onie Wheeler - Tell 'Em Off
TTITLE34=Onie Wheeler - Jump Right Out of This Jukebox (2)
TTITLE35=Onie Wheeler - Bonaparte's Retreat
EXTD=
EXTT0=
EXTT1=
EXTT2=
EXTT3=
EXTT4=
EXTT5=
EXTT6=
EXTT7=
EXTT8=
EXTT9=
EXTT10=
EXTT11=
EXTT12=
EXTT13=
EXTT14=
EXTT15=
EXTT16=
EXTT17=
EXTT18=
EXTT19=
EXTT20=
EXTT21=
EXTT22=
EXTT23=
EXTT24=
EXTT25=
EXTT26=
EXTT27=
EXTT28=
EXTT29=
EXTT30=
EXTT31=
EXTT32=
EXTT33=
EXTT34=
EXTT35=
PLAYORDER=
